<svg width="14" height="19" viewBox="0 0 14 19" fill="none" xmlns="http://www.w3.org/2000/svg">
<path d="M12.607 8.49475L7.63525 0.577747C7.56312 0.476504 7.46783 0.393969 7.35733 0.33702C7.24683 0.280071 7.12431 0.250359 7 0.250359C6.87569 0.250359 6.75318 0.280071 6.64267 0.33702C6.53217 0.393969 6.43688 0.476504 6.36475 0.577747L1.3705 8.533C0.677245 9.65218 0.290798 10.9341 0.25 12.25C0.25 14.0402 0.961159 15.7571 2.22703 17.023C3.4929 18.2888 5.20979 19 7 19C8.79021 19 10.5071 18.2888 11.773 17.023C13.0388 15.7571 13.75 14.0402 13.75 12.25C13.707 10.9193 13.3126 9.62373 12.607 8.49475ZM7 17.5C5.60822 17.498 4.27402 16.9443 3.28988 15.9601C2.30574 14.976 1.75198 13.6418 1.75 12.25C1.79063 11.2013 2.10561 10.1816 2.6635 9.29275L3.36475 8.17525L10.9202 15.7307C10.4294 16.2866 9.82614 16.7318 9.15031 17.037C8.47447 17.3421 7.74153 17.4994 7 17.5Z" fill="white"/>
</svg>
