<svg width="22" height="20" viewBox="0 0 22 20" fill="none" xmlns="http://www.w3.org/2000/svg">
<path d="M11 1V2.5M16 11C16 9.67392 15.4732 8.40215 14.5355 7.46447C13.5979 6.52678 12.3261 6 11 6C9.67392 6 8.40215 6.52678 7.46447 7.46447C6.52678 8.40215 6 9.67392 6 11M4.988 4.99L3.928 3.929M21 11H19.5M2.5 11H1M18.07 3.929L17.01 4.989M5.5 14V17C5.5 17.943 5.5 18.414 5.793 18.707C6.086 19 6.557 19 7.5 19C8.443 19 8.914 19 9.207 18.707C9.5 18.414 9.5 17.943 9.5 17V14M12.5 14L14.5 19L16.5 14" stroke="white" stroke-width="1.5" stroke-linecap="round" stroke-linejoin="round"/>
</svg>
