<svg width="22" height="18" viewBox="0 0 22 18" fill="none" xmlns="http://www.w3.org/2000/svg">
<path d="M11 0C16.392 0 20.878 3.88 21.819 9C20.879 14.12 16.392 18 11 18C5.60801 18 1.12201 14.12 0.182007 9C1.12201 3.88 5.60801 0 11 0ZM11 16C13.0396 15.9998 15.0188 15.3071 16.6135 14.0355C18.2081 12.7638 19.3239 10.9884 19.778 9C19.3226 7.01282 18.2065 5.23896 16.612 3.96854C15.0176 2.69813 13.0392 2.00635 11.0005 2.00635C8.96182 2.00635 6.98346 2.69813 5.38901 3.96854C3.79455 5.23896 2.67837 7.01282 2.22301 9C2.6771 10.9883 3.79268 12.7635 5.38715 14.0352C6.98162 15.3068 8.96054 15.9996 11 16ZM11 13.5C9.80653 13.5 8.66194 13.0259 7.81803 12.182C6.97411 11.3381 6.50001 10.1935 6.50001 9C6.50001 7.80653 6.97411 6.66193 7.81803 5.81802C8.66194 4.97411 9.80653 4.5 11 4.5C12.1935 4.5 13.3381 4.97411 14.182 5.81802C15.0259 6.66193 15.5 7.80653 15.5 9C15.5 10.1935 15.0259 11.3381 14.182 12.182C13.3381 13.0259 12.1935 13.5 11 13.5ZM11 11.5C11.663 11.5 12.2989 11.2366 12.7678 10.7678C13.2366 10.2989 13.5 9.66304 13.5 9C13.5 8.33696 13.2366 7.70107 12.7678 7.23223C12.2989 6.76339 11.663 6.5 11 6.5C10.337 6.5 9.70108 6.76339 9.23224 7.23223C8.7634 7.70107 8.50001 8.33696 8.50001 9C8.50001 9.66304 8.7634 10.2989 9.23224 10.7678C9.70108 11.2366 10.337 11.5 11 11.5Z" fill="white"/>
</svg>
