<svg width="22" height="20" viewBox="0 0 22 20" fill="none" xmlns="http://www.w3.org/2000/svg">
<path d="M2 6H8.5C8.99445 6 9.4778 5.85338 9.88893 5.57867C10.3 5.30397 10.6205 4.91352 10.8097 4.45671C10.9989 3.99989 11.0484 3.49723 10.952 3.01228C10.8555 2.52732 10.6174 2.08187 10.2678 1.73223C9.91814 1.3826 9.47268 1.1445 8.98773 1.04804C8.50277 0.951575 8.00011 1.00108 7.54329 1.1903C7.08648 1.37952 6.69603 1.69995 6.42133 2.11108C6.14662 2.5222 6 3.00555 6 3.5V3.857M3 12H17.5C18.1922 12 18.8689 12.2053 19.4445 12.5899C20.0201 12.9744 20.4687 13.5211 20.7336 14.1606C20.9985 14.8002 21.0678 15.5039 20.9327 16.1828C20.7977 16.8618 20.4644 17.4854 19.9749 17.9749C19.4854 18.4644 18.8617 18.7977 18.1828 18.9328C17.5039 19.0678 16.8001 18.9985 16.1606 18.7336C15.5211 18.4687 14.9744 18.0201 14.5899 17.4445C14.2053 16.8689 14 16.1922 14 15.5V15" stroke="white" stroke-width="1.5" stroke-linecap="round"/>
<path d="M1 9H17.5C18.1922 9 18.8689 8.79473 19.4445 8.41015C20.0201 8.02556 20.4687 7.47893 20.7336 6.83939C20.9985 6.19985 21.0678 5.49612 20.9327 4.81719C20.7977 4.13825 20.4644 3.51461 19.9749 3.02513C19.4854 2.53564 18.8617 2.2023 18.1828 2.06725C17.5039 1.9322 16.8001 2.00152 16.1606 2.26642C15.5211 2.53133 14.9744 2.97993 14.5899 3.55551C14.2053 4.13108 14 4.80777 14 5.5V6" stroke="white" stroke-width="1.5" stroke-linecap="round"/>
</svg>
